<svg xmlns="http://www.w3.org/2000/svg" data-name="Layer 1" viewBox="0 0 24 24" id="charger"><path d="M19,0H15a2.5,2.5,0,0,0-2.45,2H11A1.5,1.5,0,0,0,9.59,3H8A.5.5,0,0,0,8,4H9.5V7H8A.5.5,0,0,0,8,8H9.59A1.5,1.5,0,0,0,11,9h1.5v3.5A2.5,2.5,0,0,0,15,15h1.5v5a3,3,0,0,1-6,0V17a3,3,0,0,0-6,0H4a1.5,1.5,0,0,0-1.5,1.5v3A.5.5,0,0,0,3,22h.5v1.5A.5.5,0,0,0,4,24H6a.5.5,0,0,0,.5-.5V22H7a.5.5,0,0,0,.5-.5v-3A1.5,1.5,0,0,0,6,17H5.5a2,2,0,1,1,4,0v3a4,4,0,0,0,8,0V15H19a2.5,2.5,0,0,0,2.5-2.5V2.5A2.5,2.5,0,0,0,19,0ZM12.5,8H11a.5.5,0,0,1-.5-.5v-4A.5.5,0,0,1,11,3h1.5Zm-7,15h-1V22h1ZM6,18a.5.5,0,0,1,.5.5V21h-3V18.5A.5.5,0,0,1,4,18Zm14.5-5.5A1.5,1.5,0,0,1,19,14H15a1.5,1.5,0,0,1-1.5-1.5V2.5A1.5,1.5,0,0,1,15,1h4a1.5,1.5,0,0,1,1.5,1.5ZM17.65,4.15l-2,2a.5.5,0,0,0,.11.79L17,7.62,15.48,9.15a.5.5,0,1,0,.71.71l2-2a.5.5,0,0,0-.11-.79l-1.25-.68,1.53-1.53a.5.5,0,0,0-.71-.71Z"></path></svg>